# xmcd CD database file generated by Grip 3.3.1
# 
# Track frame offsets:
#       150
#       15710
#       29997
#       47320
#       60122
#       81222
#       121267
#       144865
#       156672
#       168197
#       179950
#       198715
# 
# Disc length: 2863 seconds
# 
# Revision: 1
# Processed by: cddbd v1.5.2PL0 Copyright (c) Steve Scherf et al.
# Submitted via: Grip 3.3.1
# 
DISCID=a30b2d0c
DTITLE=Various Artist - '71全日本フォーク・ジャンボリーラ
DTITLE=イブ
DYEAR=1900
DGENRE=Other
TTITLE0=教訓Ⅰ/加川　良
TTITLE1=ゼニの効用力について/加川　良
TTITLE2=かみしばい/岩井　宏
TTITLE3=自転車にのって/高田　渡
TTITLE4=生活の柄/高田　渡
TTITLE5=人間なんて/吉田拓郎
TTITLE6=もしも/武蔵野タンポポ団
TTITLE7=たんぽぽ/ガロ
TTITLE8=今ここに/のこいのこ
TTITLE9=一円玉/なぎらけんいち
TTITLE10=カレーライス/遠藤賢司
TTITLE11=12月の雨の日/はっぴいえんど
EXTD=
EXTT0=
EXTT1=
EXTT2=
EXTT3=
EXTT4=
EXTT5=
EXTT6=
EXTT7=
EXTT8=
EXTT9=
EXTT10=
EXTT11=
PLAYORDER=
